<svg id="svg" version="1.1" xmlns="http://www.w3.org/2000/svg" xmlns:xlink="http://www.w3.org/1999/xlink" width="400" height="400.27777777777777" viewBox="0, 0, 400,400.27777777777777"><g id="svgg"><path id="path0" d="M148.921 83.231 C 147.664 84.111,147.500 85.085,147.500 91.658 L 147.500 97.778 163.903 97.778 L 180.306 97.778 180.222 91.088 L 180.139 84.398 179.232 83.588 L 178.325 82.778 163.946 82.778 C 151.103 82.778,149.499 82.826,148.921 83.231 " stroke="none" fill="#ec7463" fill-rule="evenodd"></path><path id="path1" d="M147.500 98.889 L 147.500 100.000 163.889 100.000 L 180.278 100.000 180.278 98.889 L 180.278 97.778 163.889 97.778 L 147.500 97.778 147.500 98.889 M147.846 268.819 C 148.275 270.386,160.489 296.939,161.072 297.574 C 162.473 299.097,165.226 299.143,166.699 297.669 C 167.063 297.305,168.978 293.399,170.954 288.989 C 172.930 284.580,175.827 278.128,177.392 274.653 L 180.238 268.333 163.975 268.333 C 148.622 268.333,147.720 268.361,147.846 268.819 M168.889 289.618 C 168.889 290.024,165.415 296.280,165.018 296.588 C 164.328 297.126,163.203 297.001,162.591 296.319 C 162.107 295.780,158.889 289.911,158.889 289.568 C 158.889 289.500,161.139 289.444,163.889 289.444 C 166.639 289.444,168.889 289.523,168.889 289.618 " stroke="none" fill="#c4b6a1" fill-rule="evenodd"></path><path id="path2" d="M147.500 168.819 L 147.500 237.639 163.730 237.565 L 179.960 237.491 180.081 238.121 C 180.148 238.467,180.219 231.656,180.240 222.986 L 180.278 207.222 188.313 207.222 C 196.953 207.222,199.652 207.459,202.404 208.458 C 208.009 210.492,212.635 215.456,214.326 221.250 C 214.760 222.738,214.832 225.004,214.996 242.361 C 215.171 260.875,215.209 261.957,215.794 264.966 C 220.025 286.724,237.403 303.095,259.320 305.968 C 273.577 307.837,281.603 303.995,283.768 294.264 C 286.234 283.180,278.995 273.953,267.778 273.884 C 258.373 273.826,251.246 268.871,248.406 260.417 L 247.659 258.194 247.474 238.750 C 247.283 218.851,247.267 218.551,246.128 213.472 C 243.841 203.285,236.867 192.634,228.193 186.085 L 226.674 184.939 228.373 183.094 C 237.889 172.768,242.624 160.458,242.163 147.240 C 241.821 137.432,235.728 131.673,225.694 131.676 C 215.084 131.678,210.367 136.306,209.705 147.362 C 209.104 157.387,203.726 164.527,195.278 166.512 C 193.414 166.950,182.995 167.141,181.146 166.771 L 180.278 166.597 180.278 133.299 L 180.278 100.000 163.889 100.000 L 147.500 100.000 147.500 168.819 " stroke="none" fill="#fcb43c" fill-rule="evenodd"></path><path id="path3" d="M158.889 289.568 C 158.889 289.911,162.107 295.780,162.591 296.319 C 163.203 297.001,164.328 297.126,165.018 296.588 C 165.415 296.280,168.889 290.024,168.889 289.618 C 168.889 289.523,166.639 289.444,163.889 289.444 C 161.139 289.444,158.889 289.500,158.889 289.568 " stroke="none" fill="#0775bb" fill-rule="evenodd"></path><path id="path4" d="M147.685 237.685 C 147.583 237.787,147.500 244.725,147.500 253.102 L 147.500 268.333 163.889 268.333 L 180.278 268.333 180.278 253.785 C 180.278 245.783,180.200 238.845,180.104 238.368 L 179.931 237.500 163.900 237.500 C 155.084 237.500,147.787 237.583,147.685 237.685 " stroke="none" fill="#fcac15" fill-rule="evenodd"></path></g></svg>