<svg id="Layer_3" enable-background="new 0 0 64 64" height="512" viewBox="0 0 64 64" width="512" xmlns="http://www.w3.org/2000/svg"><g><path d="m2 2h30v60h-30z" fill="#88929f"/><path d="m2 2h30v4h-30z" fill="#c1c8d1"/><path d="m2 16h30v4h-30z" fill="#c1c8d1"/><path d="m2 30h30v4h-30z" fill="#c1c8d1"/><path d="m2 44h30v4h-30z" fill="#c1c8d1"/><path d="m38 20h24v42h-24z" fill="#88929f"/><path d="m38 20h12v10h-12z" fill="#c7e2fb"/><path d="m38 29.817c6.202-.857 11.042-4.831 11.863-9.817h-11.863z" fill="#ebf7fe"/><path d="m50 20h12v10h-12z" fill="#c7e2fb"/><path d="m50 29.817c6.202-.857 11.042-4.831 11.863-9.817h-11.863z" fill="#ebf7fe"/><path d="m50 34h12v10h-12z" fill="#c7e2fb"/><path d="m50 43.817c6.202-.857 11.042-4.831 11.863-9.817h-11.863z" fill="#ebf7fe"/><path d="m38 34h12v10h-12z" fill="#c7e2fb"/><path d="m38 43.817c6.202-.857 11.042-4.831 11.863-9.817h-11.863z" fill="#ebf7fe"/><path d="m45 54h10v8h-10z" fill="#ebf7fe"/><path d="m17 20h15v10h-15z" fill="#8bd2f5"/><path d="m31.964 20h-14.964v10c8.043 0 14.589-4.435 14.964-10z" fill="#b9e4f9"/><path d="m2 34h15v10h-15z" fill="#8bd2f5"/><path d="m16.964 34h-14.964v10c8.043 0 14.589-4.435 14.964-10z" fill="#b9e4f9"/><path d="m17 34h15v10h-15z" fill="#8bd2f5"/><path d="m31.964 34h-14.964v10c8.043 0 14.589-4.435 14.964-10z" fill="#b9e4f9"/><path d="m2 6h15v10h-15z" fill="#8bd2f5"/><path d="m13 53h8v9h-8z" fill="#ebf7fe"/><path d="m21 28h24v34h-24z" fill="#4472b0"/><path d="m30 62v-3c0-1.657 1.343-3 3-3 1.657 0 3 1.343 3 3v3z" fill="#88929f"/><g fill="#ebf7fe"><path d="m25 32h6v4h-6z"/><path d="m35 32h6v4h-6z"/><path d="m25 40h6v4h-6z"/><path d="m35 40h6v4h-6z"/><path d="m25 48h6v4h-6z"/><path d="m35 48h6v4h-6z"/></g><path d="m48 13 8-8v6l-2 2z" fill="#c1c8d1"/><path d="m52 17h6v3h-6z" fill="#c1c8d1"/><path d="m50 11c-1.105-1.105-1.105-2.895 0-4 1.105-1.105 2.895-1.105 4 0z" fill="#88929f"/><path d="m16.964 6h-14.964v10c8.043 0 14.589-4.435 14.964-10z" fill="#b9e4f9"/><path d="m17 6h15v10h-15z" fill="#8bd2f5"/><path d="m31.964 6h-14.964v10c8.043 0 14.589-4.435 14.964-10z" fill="#b9e4f9"/><path d="m2 20h15v10h-15z" fill="#8bd2f5"/><path d="m16.964 20h-14.964v10c8.043 0 14.589-4.435 14.964-10z" fill="#b9e4f9"/><path d="m45 30h17v4h-17z" fill="#c1c8d1"/><path d="m45 44h17v4h-17z" fill="#c1c8d1"/><g><path d="m62 19h-3v-2c0-.553-.447-1-1-1h-2v-3.586l.707-.707c.188-.187.293-.441.293-.707v-6c0-.404-.243-.77-.617-.924-.374-.156-.804-.07-1.09.217l-1.399 1.399c-1.173-.67-2.616-.67-3.789 0l-1.399-1.399-1.414 1.414 1.398 1.398c-.671 1.173-.671 2.616 0 3.789l-1.398 1.398c-.286.286-.372.716-.217 1.09.155.375.521.618.925.618h6v2h-2c-.553 0-1 .447-1 1v2h-13c-.553 0-1 .447-1 1v7h-4v-25c0-.553-.447-1-1-1h-30c-.553 0-1 .447-1 1v60c0 .553.447 1 1 1h60c.553 0 1-.447 1-1v-42c0-.553-.447-1-1-1zm-11.293-11.293c.452-.452 1.083-.615 1.666-.494l-2.16 2.16c-.121-.583.042-1.214.494-1.666zm2.879 4.293h-3.172l4.586-4.586v3.172zm7.414 17h-10v-8h10zm-7 32h-8v-6h8zm-19 0h-4v-2c0-1.103.897-2 2-2s2 .897 2 2zm-2-6c-2.206 0-4 1.794-4 4v2h-7v-32h22v32h-7v-2c0-2.206-1.794-4-4-4zm-2-40h-13v-8h13zm-15 0h-13v-8h13zm15 2v2h-28v-2zm-15 4v8h-13v-8zm4 10v2h-17v-2zm0 12h-2v-8h2zm-4-8v8h-13v-8zm4 10v2h-17v-2zm0 16h-6v-7h6zm26-26h3v8h-3zm0 10h15v2h-15zm5-2v-8h10v8zm-5-10v-2h15v2zm7-15h4v1h-4zm-14 3h10v8h-3v-1c0-.553-.447-1-1-1h-6zm-18 6c-.553 0-1 .447-1 1v1h-2v-8h13v6zm10-24v2h-28v-2zm-28 46h17v3h-7c-.553 0-1 .447-1 1v8h-9zm53 12v-7c0-.553-.447-1-1-1h-9v-4h15v12z"/><path d="m31 31h-6c-.553 0-1 .447-1 1v4c0 .553.447 1 1 1h6c.553 0 1-.447 1-1v-4c0-.553-.447-1-1-1zm-1 4h-4v-2h4z"/><path d="m35 37h6c.553 0 1-.447 1-1v-4c0-.553-.447-1-1-1h-6c-.553 0-1 .447-1 1v4c0 .553.447 1 1 1zm1-4h4v2h-4z"/><path d="m31 39h-6c-.553 0-1 .447-1 1v4c0 .553.447 1 1 1h6c.553 0 1-.447 1-1v-4c0-.553-.447-1-1-1zm-1 4h-4v-2h4z"/><path d="m35 45h6c.553 0 1-.447 1-1v-4c0-.553-.447-1-1-1h-6c-.553 0-1 .447-1 1v4c0 .553.447 1 1 1zm1-4h4v2h-4z"/><path d="m31 47h-6c-.553 0-1 .447-1 1v4c0 .553.447 1 1 1h6c.553 0 1-.447 1-1v-4c0-.553-.447-1-1-1zm-1 4h-4v-2h4z"/><path d="m42 52v-4c0-.553-.447-1-1-1h-6c-.553 0-1 .447-1 1v4c0 .553.447 1 1 1h6c.553 0 1-.447 1-1zm-2-1h-4v-2h4z"/></g></g></svg>